<svg width="20" height="20" viewBox="0 0 20 20" fill="none" xmlns="http://www.w3.org/2000/svg">
<path d="M5.52215 4.5515C5.23371 4.26282 4.76574 4.26282 4.47731 4.5515C3.40637 5.62243 2.88 7.11431 3.03297 8.64486C3.07114 9.02614 3.39235 9.31036 3.76746 9.31036C3.79211 9.31036 3.81696 9.30911 3.8416 9.30665C4.24778 9.26603 4.54407 8.90368 4.50344 8.49779C4.39457 7.41009 4.76602 6.35247 5.52215 5.5963C5.81082 5.3079 5.81082 4.83989 5.52215 4.5515Z" fill="url(#paint0_linear)"/>
<path d="M8.44828 0C3.78988 0 0 3.78988 0 8.44828C0 13.1067 3.78988 16.8966 8.44828 16.8966C13.1067 16.8966 16.8966 13.1067 16.8966 8.44828C16.8966 3.78988 13.1066 0 8.44828 0ZM8.44828 15.4187C4.60469 15.4187 1.47785 12.2919 1.47785 8.44828C1.47785 4.60469 4.60469 1.47785 8.44828 1.47785C12.2916 1.47785 15.4187 4.60469 15.4187 8.44828C15.4187 12.2919 12.2919 15.4187 8.44828 15.4187Z" fill="#FCFCFC"/>
<path d="M19.7835 18.7387L14.414 13.3692C14.1254 13.0805 13.6579 13.0805 13.3692 13.3692C13.0805 13.6577 13.0805 14.1256 13.3692 14.4141L18.7387 19.7835C18.883 19.9278 19.0719 20 19.2611 20C19.4503 20 19.6392 19.9278 19.7835 19.7835C20.0722 19.4951 20.0722 19.0271 19.7835 18.7387Z" fill="white"/>
<defs>
<linearGradient id="paint0_linear" x1="4.3728" y1="4.33499" x2="4.3728" y2="9.31036" gradientUnits="userSpaceOnUse">
<stop stop-color="#B5F9FF"/>
<stop offset="1" stop-color="#CAFF94"/>
</linearGradient>
</defs>
</svg>
